# xmcd
#
# Track frame offsets:
#	150
#	14623
#	27407
#	44105
#	55192
#	68474
#	84141
#	95006
#	110237
#	122806
#
# Disc length: 1838 seconds
#
# Revision: 1
# Processed by: cddbd v1.5.2PL0 Copyright (c) Steve Scherf et al.
# Submitted via: EZCDAudioConverter 4.0.9.1
#
DISCID=87072c0a
DTITLE=Billie Jo Spears - Standing Tall
DYEAR=1980
DGENRE=Country
TTITLE0=Standing Tall
TTITLE1=Free To Be Lonely Again
TTITLE2=Love Ain´t The Question (Love Ain´t The Answer)
TTITLE3=Callin´ Baton Rouge
TTITLE4=It Can Wait
TTITLE5=Natural Attraction
TTITLE6=Let Your Hair Down Sweet Lady Man
TTITLE7=You Could Know As Much About A Stranger
TTITLE8=Freedom Song
TTITLE9=Any Old Wind That Blows
EXTD=
EXTT0=
EXTT1=
EXTT2=
EXTT3=
EXTT4=
EXTT5=
EXTT6=
EXTT7=
EXTT8=
EXTT9=
PLAYORDER=
